<svg id="Layer_1" data-name="Layer 1" xmlns="http://www.w3.org/2000/svg" viewBox="0 0 500 500"><defs><style>.cls-1{fill:#d0cde1;}.cls-2{fill:#3f3d56;}.cls-3{fill:#ffb8b8;}.cls-4{fill:#2f2e41;}.cls-5{fill:#575a89;}.cls-6{fill:#6c63ff;}</style></defs><path class="cls-1" d="M629.67,323.79c-.93-3.36.4-5,.94-8s-1.21-12.33-1.21-12.33-5.61-32.32-7.34-38.67a10.91,10.91,0,0,0-3.93-5.77c-.11-.83-.26-1.36-.48-1.51-1.55-1.08-5.4-3.43-8-4.08a18.9,18.9,0,0,0-1.7-3.22,10.29,10.29,0,0,0,.61-3.93c-.17-3.52-2.07-6.68-1.83-10.19.19-2.67,1.59-4.86,2.12-7.43a11.76,11.76,0,0,0-.71-6.89l1.19,1.77A8.23,8.23,0,0,0,609,216c-1.25-1.93-3.35-2.65-4.32-4.88s-.46-5.39-1.4-7.73c-2.31-5.71-8.23-1.66-11.77-3.65-1.46-.82-2.56-1.72-4.2-1.66a12.32,12.32,0,0,0-4.1,1.07,9.41,9.41,0,0,0-4.69,4.71,3.64,3.64,0,0,1,.36-.49,1.61,1.61,0,0,1,2.82.52,3.16,3.16,0,0,1,.13,1.11,5.25,5.25,0,0,1-2.15,3.76,9,9,0,0,0-2.89,2.92c-1.12,2.28-.46,5.34-.46,8.11a13.89,13.89,0,0,1-3.18,9.12l3.77-2.15a50.91,50.91,0,0,0-3.48,14.27l5.09-5.89a40.45,40.45,0,0,0-3.35,13.91l4.09-5.86a3.79,3.79,0,0,1,.27,1.51l-.42,2.3c-.15.46-.32.9-.5,1.33-.66,1.58-1.34,3.53-.73,5.14h0c-.65,3.05-1.63,6.1-3.8,7.58,2.41.36,4.93-1.33,6-4a7.61,7.61,0,0,0,.64,1.35l.2.37-.6.56-1.61,1.5s-10.55,3-9.88,8.59c0,.23.06.51.1.82l-3,7.21-4.41,20.92s-2.27,6.73-1.87,9.53,0,3.92,0,9-1.73,7.1,0,11.2,7,16.07,7,16.07l1.14,1.2a11.13,11.13,0,0,0,.06,2.16c1.07,7.47,11.09,79,11.09,79s-5.08,56.6,5.2,60.15c1.29.44,2.56.85,3.79,1.21l1.56,14.29-.94,18.12s-7.08,22.42,5.88,23.72,7.08-19.42,7.08-19.42a13.35,13.35,0,0,0,.8-5.79c-.13-1.67-1.24-10.32-2.33-18.64,4.91-.83,4-8.12,3.34-11.33a1.87,1.87,0,0,0,.59-1c.15-.75-.19-3.68-.82-7.78s-1.38-10.7-2-15.18l3.19.73L617.78,355s.09-1.76.05-4.33a43.74,43.74,0,0,1,5.7-3.51c4.41-2.43,6.14-11.4,7.61-15.13S630.61,327.15,629.67,323.79Zm-47.9-70.41a2.41,2.41,0,0,1,1.48-.7c-.11.87-1.18,1.12-2.08,1.58a3.79,3.79,0,0,1,.6-.88ZM575,309c1.08,2.49-.87,9.23-2.64,14.57-1-1.22-2.07-.83-.83-4.29a23.44,23.44,0,0,0,1.47-7.1c0-.43.16-3.57,1.47-4.87A12.8,12.8,0,0,0,575,309Zm-4,21.46c.61-.35,1.54-.88,2.79-1.48-.6,1.1-1.28,2.41-2,3.85a3.38,3.38,0,0,1-.82-2.37Zm43.32,2.45c-.81-1.21-1.47-2.28-2-3.25,1,.37,2,.77,3.08,1.2a2.7,2.7,0,0,0,1.56-.15c0,1.29,0,3.13,0,3.13l-1.46,1.42a12.38,12.38,0,0,0-1.21-2.35Zm4.15-6.48-.05.06a15.84,15.84,0,0,0-.36-2.17c-.87-3.86-1.34-10.71-1.59-16.56L619,319.68s.13,6-.53,6.78Z" transform="translate(-240.47 -97.05)"/><path class="cls-1" d="M566.57,277.37s-13.7-32.94-14.13-36.53-7.28-10.18-7.28-10.18c-2.34-3.28-6.18-4.31-10.22-4.26,1.52-1.76-3.92-2.94-4.34-4.13s-1.71-1.2-3.42-3-6-.3-6-.3a28.46,28.46,0,0,1-1.33-6,21.16,21.16,0,0,0,2.82-10.8v-.13c.11.24.22.48.32.72.81-6.72,2.22-12.3-.48-18.43-1.91-4.35-4.9-7.55-8.4-9l-2.57,2.88,1-3.36a9.55,9.55,0,0,0-2.55-.2l-2.31,4.16,1-4c-4.06.7-7.72,3.75-10.1,8.4-2.94,5.94-2.75,14.19.15,20.17l0-.13c.26,5.69,2.56,10.8,6.12,13.58l.73,8.13h0a3.55,3.55,0,0,1-2.38,1.47c-1.29,0-2.57,4.8-2.57,4.8s-.73.51-1.52,2.93c-2,1.93-8.18,8-10.47,12.2-1.36.93-2.81,3-2.57,7.62.42,8.39,0,47.31,0,47.31s-3.86,32.94-2.57,35.33-.43,10.18-.43,10.18l1.28.4v2s-3.86,25,2.14,23.95c9.85-1.79,2.57-22.15,2.57-22.15V348.7l1.72.53s.85-8.38,2.57-9c.59-.21,1.29-2.45,1.95-5.28.38,4.41.62,7.07.62,7.07l2.67-.83.75,3.83a4,4,0,0,0,.58.36l-.58,4.43a43.12,43.12,0,0,0,0,7.78c.22,1.51,8.17,33.79,16,65.42l-.14,7.64s-3.86,6-3,10.18-2.14,38.93-2.14,38.93l-2.57,17.37.64.27-.59,3.05a4.9,4.9,0,0,0-1.34,1.47c-3.42,5.39-7.71,21-7.71,21s-7.7,16.17,4.29,15.57,12.84-6.59,12.84-6.59,1.72-15.57,1.72-16.17-.86-6.75-.86-6.75l-.33-.52.23-7.47,2.24,1s2.14-15.57,3.86-17.37c.59-.63,2.19-7.62,4-16.61,1.85,7.49,3.65,33.37,4.24,35.72a9.44,9.44,0,0,0-.55,1.25q-2.88,7.76-6.42,15s-13.7,11.38,0,14.38c0,0,7.71.59,11.56-3s14.13-9,14.13-10.18-2.57-18.8-5.13-16.89h0l-1.73-5.53,1.73-.93-10.85-68.06q.39-2.18.57-4.41c0-3.13,5.54-64.2,7-79.68,6.21,2.46,11.89-15.53,11.89-15.53l1.41-3.55,2,1.75s1.71-6,4.28-6.59,7.28-32.34,7.28-36.53A26,26,0,0,0,566.57,277.37Zm-20,46.92a16.43,16.43,0,0,0-1.46-2.61,97.85,97.85,0,0,0,2.57-12.57c.86-6.59-1.28-28.15-1.28-28.15l0-1.46c2.1,3.85,4.75,9,4.75,10.44a5.27,5.27,0,0,0,1.28,3.6l-2.57,12.57s-1.71,6-2.14,9a42.11,42.11,0,0,0-.43,5.39l.61.53Z" transform="translate(-240.47 -97.05)"/><path class="cls-1" d="M370.53,288.45l2.28-.72-9.42-37.13-20.34-10.48-.22.33c-1.73-2.35-2.47-5.75-2.78-8.44,6.14-3.46,9.11-13.23,6.63-21.82a20.56,20.56,0,0,0-1-2.79c1.68-.57,2.27-2.69,2.84-5.23a6,6,0,0,0-1.07-.32c.27-.83.53-1.66.8-2.48l-1.39-.18c.11-.77.23-1.54.35-2.31l-1.77,1.71a6.69,6.69,0,0,0-.61-4.84,7.46,7.46,0,0,0-3-2.92c-4.61-2.54-9.85-1.26-13.57,3.32l-.13-.7c-3.61,3.89-6,9.62-6.58,15.94S323.13,222,325.92,227c0-.22-.05-.43-.07-.65.12.23.24.46.37.69l.35,18.22-.86,1s-14.42,9.12-15,20h0c-.86,5.3-1.29,32.85-1.29,32.85h1.18l-1.18,10.78-7.71,41.92s-9.85,18-1.29,21.56c5.33,2.23,6.84-6.4,7.23-13.26a3.37,3.37,0,0,0,3.05,3.08l.45.05c-4.05,14.63-1.3,62.23-1.3,62.23-2.15,6,23.12,47.31,23.12,47.31l1.52-1.14.33.92c-.85.12-1.42.22-1.42.22v18.56s-3.86,18.57,1.28,22.16c1.33.93,2.72.25,4-1.26-.25,5.73-.61,14.28-.61,16.23,0,3,5.57,8.39,5.57,8.39s1.28,6.58,11.56,6.58,2.57-17.36,2.57-17.36l-5.57-17.37s-.42.28-1.68-1.15l.45-6.95,2.51.31L357,430.86s3-62.28,3.43-71.86c.1-3.08,0-6.15-.16-9.22l12.57-36.3Zm-9.28,23.24L360,318V304.1ZM307.79,356.1c0-2.2-.07-3.69-.07-3.69L316.1,329l-.24,7.25S309.16,348.1,307.79,356.1Zm19.63,67.57,8.14-40.12,4.71,48.51-.34,17.63a35.83,35.83,0,0,1-1.37-5.06C337.27,437.45,327.42,423.67,327.42,423.67Z" transform="translate(-240.47 -97.05)"/><path class="cls-1" d="M443.31,519c-4-2.31-11.81-7.26-12.75-9.9S424.9,486,424.9,486l-1.22.12c-.16-9.3-.83-45.32-1.85-49.63,0,0,4.95-57.1-5-79.88l-1.78-10.09c.58-4,.51-13.41.13-15-.47-2,5.43-8.25,3.78-12.21s-6.14-17.5-6.14-17.5a26.41,26.41,0,0,0-5.9-16.5s-1.86-14.74-10.25-15c-1.14-2.77-2.73-7.17-2.26-9.13s2.41-8.65,3.49-12.31a10.45,10.45,0,0,0,1.65-1.28c6.68-4.18,11.38-14.23,11.38-26,0-12.57-5.39-23.21-12.82-26.78,1.25-4.59-.4-9.74-3.69-11.48s-7,.57-8.22,5.17a11.92,11.92,0,0,0-.41,3.12c-1.37-4.53.15-9.75,3.39-11.66a4.88,4.88,0,0,1,2.48-.7,4.68,4.68,0,0,1,1.23.17c-3.17-2.11-7-.23-8.48,4.22-1.25,3.66-.56,8,1.66,10.65.07.32.16.64.26,1-7,3.95-12,14.25-12,26.34,0,11.22,4.29,20.89,10.49,25.38,0,3.65-.68,9.8-4.28,13.55-1.86-1.19-4.44-2.49-6.09-1.9-.86-.93-2.15-1.24-3.91,1.22-3.54,4.95-6.61,17.82-6.61,25.74s.71,53.8.71,53.8-3.77,2-1.18,4.95a2.58,2.58,0,0,0,1.91,1L368,372.11s-1.66,25.74,4.72,26.07a2,2,0,0,0,1.42-.49l-4.73,29.87s-10.85,9.9-19.35,29.37a183.28,183.28,0,0,0-7.65,19.84l-1.56-1.35-5.42,14.52s-12,10.23-9.45,17.82,5,9.57,5,9.57l1.65-1,3.07,7.92s8,16.18,21,7.93a8.85,8.85,0,0,0,0-7.93c-2.13-4.29-7.56-13.53-7.56-13.53l3.54-25.08-.73-.64,22.45-38s6.61-5.61,9-10.56,17-56.11,17-56.11l8.26,53.47s-.47,19.47,1.65,32a185.38,185.38,0,0,1,2.26,21.4l-.6.06,1.41,14.85s-6.13,21.12-1.89,22.77a46.39,46.39,0,0,0,9.21,2.32l.47-2.32s18.17,13.87,24.78,3.64C445.9,528.56,447.32,521.29,443.31,519ZM378.64,356.92c.7,1,.47,5.61.47,5.61l-1.42,12.88-1.41,8.93c-.2-4.22-.59-8.42-1.18-12.56l-.66-24.67a1.27,1.27,0,0,0,.42.24c.47,0,.24-5.61.24-5.61s.27-1,.62-2.58c.91,3.84,2,6.34,3.39,6.87l.23,4.29s-3.06,2-.23,2a1.71,1.71,0,0,0,.49-.1l-.26,1.75S377.93,355.93,378.64,356.92Z" transform="translate(-240.47 -97.05)"/><ellipse class="cls-2" cx="198.8" cy="432.94" rx="189.73" ry="4.37"/><ellipse class="cls-2" cx="265.2" cy="444.24" rx="208.7" ry="11.3"/><ellipse class="cls-2" cx="226.68" cy="461" rx="102.42" ry="11.3"/><ellipse class="cls-2" cx="374.71" cy="474.49" rx="45.61" ry="5.83"/><ellipse class="cls-2" cx="312.17" cy="494.17" rx="21.63" ry="5.83"/><ellipse class="cls-2" cx="135.99" cy="469.39" rx="21.63" ry="5.83"/><polygon class="cls-3" points="242.84 403.42 244.93 423.83 255.35 422.37 254.31 401.23 242.84 403.42"/><polygon class="cls-3" points="193.33 403.42 191.24 423.83 180.82 422.37 181.86 401.23 193.33 403.42"/><path class="cls-4" d="M418.68,289.08s-9.38,15.31-7.29,39.36,5.73,78.72,5.73,78.72l2.61,96.95,16.67-1.46L439,420.29,447.35,354l22.41,77.27s10.95,72.16,11.47,72.16,15.64-2.19,15.64-2.19l-7.3-85.28S478.1,292,471.33,289.81,418.68,289.08,418.68,289.08Z" transform="translate(-240.47 -97.05)"/><path class="cls-4" d="M496.87,516.5s-9.39-8.75-13,1.46-.53,17.49-.53,17.49,3.13,2.92,1.57,5.83-2.09,21.87,11.47,19,6.77-22.6,6.77-22.6Z" transform="translate(-240.47 -97.05)"/><path class="cls-4" d="M420.25,516.5s9.38-8.75,13,1.46.52,17.49.52,17.49-3.13,2.92-1.56,5.83,2.08,21.87-11.47,19-6.78-22.6-6.78-22.6Z" transform="translate(-240.47 -97.05)"/><path class="cls-3" d="M431.45,147.31s4.69,18.22,1.05,28.43,5.73,21.86,5.73,21.86,24.5-17.49,21.37-26.24-8.34-20.41-7.3-27.7Z" transform="translate(-240.47 -97.05)"/><ellipse class="cls-3" cx="200.1" cy="33.86" rx="16.68" ry="23.33"/><path class="cls-1" d="M428.59,174.64s16.73,19.48,29.21-8.12l13,10.31,6.77,110.79s-38.05,30.62-56.29,4.38l2.61-102.78Z" transform="translate(-240.47 -97.05)"/><polygon class="cls-5" points="193.37 66.69 169.87 88.53 178.21 142.47 167.26 226.29 184.99 189.12 193.37 66.69"/><path class="cls-5" d="M454.61,157.65l5.77,5.33,23.46,11.66L480.19,265l9.9,58.31L476,333.55s-2.61-27.7-18.77-41.55S450.92,161.8,454.61,157.65Z" transform="translate(-240.47 -97.05)"/><path class="cls-3" d="M415.56,299.29l6.77,6.56s-8.6,12.75-10.16,10.57a7.41,7.41,0,0,1-1.31-4.74l-1.56-5.1Z" transform="translate(-240.47 -97.05)"/><path class="cls-3" d="M460.6,297.87l-2.3,5.06s-6.78,4.37-5.22,7.29,14.6,9.48,17.2,2.92l2.61-6.56Z" transform="translate(-240.47 -97.05)"/><path class="cls-5" d="M413.47,184.85l-3.65.73-6,54.3s-2.35,9.84.26,33.17,5.19,38.51,5.19,38.51L420.77,300l-5.21-19,6.77-69.24Z" transform="translate(-240.47 -97.05)"/><path class="cls-5" d="M475.5,173.19l8.34,1.45s9.38,13.85,10.94,28.43,1,56.13,1,56.13l-24,53.21-13-13.12,18.24-45.2-8.86-53.93Z" transform="translate(-240.47 -97.05)"/><path class="cls-4" d="M456.48,109.81C454,104.08,450,99.86,445.4,98L442,101.75l1.31-4.42a13.39,13.39,0,0,0-3.34-.27l-3.05,5.48,1.26-5.29c-5.35.93-10.18,4.94-13.32,11.07-3.88,7.83-4.53,18.71-.71,26.6,1-4.51,2.32-8.73,3.36-13.23a7,7,0,0,0,2.49,0l1.27-4.16.36,4A121.81,121.81,0,0,0,445.19,119l-.36-3L447,118.5c1.15-.36,1.83-.7,1.77-1,2.79,6.28,5.55,10.3,8.33,16.58C458.17,125.26,460,117.89,456.48,109.81Z" transform="translate(-240.47 -97.05)"/><ellipse class="cls-3" cx="215.08" cy="33.13" rx="1.13" ry="3.16"/><path class="cls-6" d="M636,542.44c.48,23-9.13,31.43-21.19,31.92l-.83,0c-.56,0-1.12,0-1.67,0-10.9-.63-19.54-8.73-20-30.12-.46-22.14,19.19-50.9,20.67-53h0l.08-.13S635.48,519.43,636,542.44Z" transform="translate(-240.47 -97.05)"/><path class="cls-2" d="M613.9,570.88l7.67-15.94-7.65,17.65,0,1.79c-.56,0-1.12,0-1.67,0l.38-23v-.18l0,0,0-2.17-8.39-17,8.38,15.41,0,.46.29-17.42-7.25-17.66,7.27,14.6L613,491.19v0l.48,28.43,6.6-11.55-6.58,14,.15,15.57,6.07-15.2-6,17.49.08,8.66,8.84-21.17-8.82,24.2Z" transform="translate(-240.47 -97.05)"/><path class="cls-6" d="M356.59,508.18c.48,23-9.13,31.43-21.19,31.92l-.84,0c-.56,0-1.11,0-1.66,0-10.91-.63-19.54-8.73-20-30.12-.46-22.14,19.19-50.9,20.66-53h0l.09-.12S356.11,485.18,356.59,508.18Z" transform="translate(-240.47 -97.05)"/><path class="cls-2" d="M334.53,536.62l7.66-15.94-7.65,17.65,0,1.79c-.56,0-1.11,0-1.66,0l.38-23v-.22l0-2.17-8.39-17L333.31,513l0,.46.29-17.42-7.25-17.66,7.27,14.6-.08-36.07v0l.48,28.43,6.61-11.55-6.58,14,.14,15.57,6.08-15.2-6.06,17.49.08,8.67,8.84-21.18-8.81,24.2Z" transform="translate(-240.47 -97.05)"/><path class="cls-6" d="M565.35,574.87c.28,13.5-5.36,18.45-12.44,18.73l-.49,0c-.33,0-.66,0-1,0-6.4-.37-11.47-5.12-11.73-17.68-.27-13,11.26-29.88,12.13-31.13h0l0-.07S565.07,561.36,565.35,574.87Z" transform="translate(-240.47 -97.05)"/><path class="cls-2" d="M552.4,591.56l4.5-9.35-4.49,10.35v1.06c-.33,0-.66,0-1,0l.23-13.52v-.13l0-1.28-4.93-10,4.92,9.05,0,.27.17-10.22-4.26-10.37,4.27,8.57,0-21.18v0l.28,16.69,3.88-6.78-3.87,8.22.09,9.14,3.57-8.92-3.56,10.27,0,5.08,5.19-12.43-5.18,14.2Z" transform="translate(-240.47 -97.05)"/><path class="cls-4" d="M740.43,134.36c0-.07,0-.14,0-.2a.24.24,0,0,1,0,.08Z" transform="translate(-240.47 -97.05)"/><path class="cls-2" d="M667.59,521.13l38.61-80.29-38.53,88.93.08,9q-4.23,0-8.37-.19l1.91-116.13,0-.9.07-.17.18-11-42.28-85.84,42.23,77.63.15,2.32L663,316.8l-36.52-89,36.62,73.59-.38-181.78v0l2.43,143.27,33.28-58.2-33.17,70.54.72,78.48,30.63-76.6-30.51,88.14.4,43.64,44.54-106.7-44.4,121.92Z" transform="translate(-240.47 -97.05)"/><path class="cls-2" d="M273.39,518l26.27-54.63L273.44,523.9l.06,6.14c-1.92,0-3.82,0-5.7-.13l1.3-79,0-.61.05-.12.12-7.47-28.77-58.41,28.74,52.82.1,1.58,1-59.7-24.85-60.56,24.92,50.07L270.1,244.8v0l1.65,97.49,22.65-39.6-22.57,48,.49,53.41L293.17,352l-20.76,60,.27,29.7L303,369l-30.21,83Z" transform="translate(-240.47 -97.05)"/></svg>